<?xml version="1.0" encoding="UTF-8" standalone="no"?>
<svg
   xmlns:dc="http://purl.org/dc/elements/1.1/"
   xmlns:cc="http://creativecommons.org/ns#"
   xmlns:rdf="http://www.w3.org/1999/02/22-rdf-syntax-ns#"
   xmlns:svg="http://www.w3.org/2000/svg"
   xmlns="http://www.w3.org/2000/svg"
   xmlns:sodipodi="http://sodipodi.sourceforge.net/DTD/sodipodi-0.dtd"
   xmlns:inkscape="http://www.inkscape.org/namespaces/inkscape"
   sodipodi:docname="showOHIO-logo-8bit.svg"
   inkscape:version="1.0 (4035a4fb49, 2020-05-01)"
   id="svg1050"
   version="1.1"
   viewBox="0 0 80.675148 87.362053"
   height="87.362053mm"
   width="80.675148mm">
  <defs
     id="defs1044" />
  <sodipodi:namedview
     inkscape:window-maximized="0"
     inkscape:window-y="230"
     inkscape:window-x="1678"
     inkscape:window-height="1228"
     inkscape:window-width="1624"
     fit-margin-bottom="0"
     fit-margin-right="0"
     fit-margin-left="0"
     fit-margin-top="0"
     showgrid="false"
     inkscape:document-rotation="0"
     inkscape:current-layer="layer1"
     inkscape:document-units="mm"
     inkscape:cy="-323.4778"
     inkscape:cx="189.59983"
     inkscape:zoom="0.35"
     inkscape:pageshadow="2"
     inkscape:pageopacity="0.0"
     borderopacity="1.0"
     bordercolor="#666666"
     pagecolor="#ffffff"
     id="base" />
  <metadata
     id="metadata1047">
    <rdf:RDF>
      <cc:Work
         rdf:about="">
        <dc:format>image/svg+xml</dc:format>
        <dc:type
           rdf:resource="http://purl.org/dc/dcmitype/StillImage" />
        <dc:title></dc:title>
      </cc:Work>
    </rdf:RDF>
  </metadata>
  <g
     transform="translate(-55.668379,-233.7535)"
     id="layer1"
     inkscape:groupmode="layer"
     inkscape:label="Layer 1">
    <path
       inkscape:export-ydpi="96"
       inkscape:export-xdpi="96"
       d="m 135.58577,233.7535 -0.51573,0.20619 -0.10282,0.0346 v 0.0346 l -0.24081,0.10284 -0.13747,0.0687 -0.10336,0.0687 -0.51572,0.2067 -0.17209,0.0687 -0.13746,0.0346 -0.13745,0.0687 -0.20619,0.0687 -0.8258,0.30954 -0.20617,0.10336 -0.1721,0.0687 -0.13746,0.0341 -0.68781,0.17208 -0.34365,0.13746 -0.0687,0.0346 -0.0346,-0.0346 -0.0341,-0.0687 h -0.0346 l -0.13746,0.0346 h -0.0687 -0.0346 l -0.13746,0.20619 h -0.0341 v 0.0346 l -0.0687,0.0687 -0.0687,0.0341 h -0.0346 l -0.0687,0.0346 -0.0687,0.0346 -0.447,0.20619 -0.0346,0.0346 -0.24081,0.10283 -0.58446,0.27544 h -0.0341 -0.0346 l -0.2403,0.0687 -0.10335,0.0341 -0.24081,0.0687 -0.51573,0.10335 h -0.10335 l -0.13746,0.0346 -0.34417,0.0341 -0.10284,0.0346 -0.13745,0.0341 h -0.0346 l -0.0687,0.0346 -0.17208,0.13746 -0.2062,0.0687 -0.2408,0.10335 h -0.0341 l -0.24081,0.13746 -0.10335,0.0687 -0.10284,0.0346 -0.17208,0.10335 -0.10336,0.0687 -0.0687,0.0346 -0.10283,0.0341 h -0.0346 l -0.0346,0.0346 -0.13747,0.0341 -0.10283,0.0687 -0.51574,0.30955 -0.37879,0.24081 -0.27491,0.17208 h -0.0341 l -0.10335,0.0687 -0.17209,0.0687 -0.51573,0.27544 -0.0341,0.0341 -0.30953,0.17208 -0.27545,0.0687 h -0.0341 l -0.27492,-0.0341 h -0.13797 l -0.0341,0.0341 -0.0341,0.0346 -0.0346,0.0346 -0.13746,0.13746 -0.27544,0.17208 -0.34365,0.20619 -0.24081,0.13746 -0.0687,0.0692 -0.2408,0.17156 -0.41239,0.30955 -0.37827,0.34416 -0.0346,0.0341 -0.30954,0.24081 -0.13746,0.13798 -0.10335,0.10283 -0.10284,0.13798 -0.0346,0.0341 -0.13746,0.20671 -0.0341,0.0341 -0.0693,0.0687 -0.0341,0.10335 -0.41289,0.447 -0.2403,0.17208 -0.13797,0.0687 -0.13745,0.0687 -0.24081,0.10336 -0.0341,0.0346 -0.0687,0.10283 -0.13798,0.10335 -0.10284,0.13746 -0.24081,0.27544 -0.0687,0.0687 -0.17208,0.17208 -0.20619,0.20619 -0.24081,0.20619 -0.48111,0.41289 -0.0687,0.0687 -0.0693,0.0346 -0.0687,0.0346 -0.2403,0.10284 -0.24081,0.0687 -0.58497,0.48163 -0.17209,0.17208 -0.0687,0.0687 v 0.0346 l -0.37827,0.20619 v 0.0346 h -0.0341 l -0.10335,0.0687 -0.10335,0.0341 -0.13746,-0.0341 -0.30903,-0.0687 -0.24081,-0.10336 h -0.24081 -0.20619 -0.0687 l -0.48162,0.17209 -0.27492,0.0687 -0.17208,0.0687 h -0.24082 -0.0687 l -0.55035,-0.0687 -0.27492,-0.0687 -0.27492,-0.0346 -0.31006,-0.13746 -0.0682,-0.0341 -0.0693,-0.0692 -0.0687,-0.10284 -0.0341,-0.0346 -0.34416,-0.13746 -0.13747,-0.0346 h -0.0346 l -0.30902,-0.0341 -0.10335,0.0341 h -0.0341 l -0.44752,0.17208 h -0.0341 l -0.30954,0.10336 -0.0687,0.0341 -0.10335,0.0346 -0.10284,0.0346 -0.0692,0.0341 -0.20619,0.0687 -0.17156,0.0687 -0.48163,0.17208 -0.37827,0.17208 h -0.0687 l -0.2067,0.0687 -0.0341,0.0346 -0.13746,0.0341 h -0.0687 -0.0687 l -0.0346,-0.0341 h -0.0346 l -0.0341,0.0341 v 0.10335 l -0.0341,0.0346 -0.0346,0.0341 -0.0346,0.0341 -0.10284,0.0692 -0.41289,0.27492 -0.10336,0.0346 -0.37775,0.27492 -0.0687,0.0346 -0.0346,0.0341 -0.27544,0.0687 -0.27492,0.0692 h -0.1375 -0.0346 -0.13746 l -0.61909,-0.0346 -0.24029,0.0346 -0.24081,0.0687 h -0.0687 l -0.48163,0.24081 -0.13746,0.0687 -0.48162,0.34417 -0.10335,0.0687 -0.54984,0.24081 -0.13746,0.0687 -0.240812,0.0687 h -0.34417 v -0.0346 l -0.240289,-0.0341 -0.0693,-0.0346 -0.0341,-0.0341 -0.137462,-0.0346 -0.20619,-0.10335 -0.240818,-0.13746 -0.103352,-0.0341 -0.0341,-0.0346 -0.103349,-0.0346 -0.378269,-0.27492 -0.137459,-0.0687 -0.309542,-0.20671 -0.137459,-0.10283 -0.0346,-0.0346 v -0.0341 l -0.103352,-0.13798 -0.618569,-0.58446 -0.550349,-0.75706 -0.137459,-0.0341 -0.275442,-0.10335 -0.0687,-0.10335 -0.102841,-0.20619 -0.0346,-0.10336 v -0.0341 l 0.20619,-0.27543 v -0.20618 l -0.137448,-0.13746 -0.412383,-0.10336 h -0.0687 -0.103349 l -0.4129,0.13746 h -0.24029 l -0.13798,-0.13746 -0.343651,-0.447 h -0.0346 v -0.0346 l -0.10283,-0.13746 -0.240811,-0.41289 -0.0687,0.0346 -0.206711,0.0341 -0.0682,0.0346 -0.13798,0.17208 0.0687,0.30903 v 0.10335 l -0.0341,0.27544 -0.20618,0.34364 -0.103359,0.10336 -0.0346,0.0346 -0.206181,0.13746 -0.172091,0.10335 -0.240289,0.0341 -0.447,0.0687 -0.10336,-0.0341 -0.41289,-0.17208 -0.137459,-0.0346 -0.549841,-0.34365 -0.34416,-0.30954 -0.137459,-0.10336 h -0.0346 l -0.0341,-0.0687 -0.206709,-0.2067 v -0.0341 l -0.0341,-0.0346 -0.0687,-0.13746 h -0.0346 l -0.10283,-0.17208 -0.0692,-0.13746 -0.0341,-0.0687 -0.0687,-0.10336 -0.0346,-0.0341 -0.309538,-0.24133 -0.0341,-0.0341 h -0.0346 l -0.309539,-0.17208 -0.378272,-0.0341 -0.378269,-0.0692 -0.343649,-0.13746 -0.55036,-0.17156 -0.61908,-0.31006 -0.0341,-0.0341 -0.0346,-0.0346 -0.0687,-0.13746 h -0.0341 l -0.72244,-0.51573 -0.10283,-0.0346 -0.10336,-0.0687 -0.0687,-0.10335 -0.515729,-0.44701 -0.0687,-0.0687 -0.206701,-0.0346 v 0.10336 l -0.0687,0.13746 -0.20619,0.0687 -0.0687,0.0687 h -0.20619 -0.13798 l -0.309019,-0.10284 h -0.309541 l -0.37827,-0.20671 -0.275439,-0.17208 -0.0687,-0.10283 v -0.0346 l -0.0341,-0.0341 -0.0693,-0.34417 0.0346,-0.13746 h -0.20619 -0.0346 l -0.20619,0.0341 h -0.0341 -0.0346 -0.13746 -0.0687 -0.10335 -0.0346 -0.0687 -0.30954 -0.13746 -0.0341 -0.30954 l -0.34417,0.0346 h -0.34365 -0.17208 -0.20619 -0.10335 -0.0687 -0.17208 l -0.10284,0.0346 h -0.10335 -0.0687 -0.10335 -0.0687 -0.30955 -0.34364 l -0.24082,0.0341 h -0.20619 -0.0687 -0.13745 -0.0346 -0.37828 l -0.34364,0.0346 h -0.344171 -0.55035 l -0.72192,0.0341 h -0.13747 -0.41289 -0.34365 l -1.06609,0.0346 h -0.72192 -0.2067 l -1.5472,0.0341 -0.37827,0.0346 h -0.0687 -0.44751 l -1.06557,0.0341 h -0.17209 -0.17208 -0.17156 -0.79117 l -1.58182,0.0346 h -0.6537 -0.0687 -0.68782 -0.34364 -0.34365 l -0.68782,0.0341 h -0.30954 -0.79116 -1.7539 -0.37827 -0.34365 -0.68781 -0.0687 l -0.99736,0.0346 -0.0346,0.17208 v 0.34365 0.51625 0.51573 0.0346 l -0.0341,0.27492 v 0.0692 0.10284 0.6537 l -0.0346,1.06609 v 0.27543 0.4129 0.30954 0.30954 l -0.0341,0.55036 v 0.51624 0.20619 0.24133 l -0.0346,0.34417 v 0.0687 0.99735 l -0.0341,0.27544 v 0.41289 0.34365 l -0.0346,1.30741 v 0.48163 l -0.0687,1.61644 v 0.27543 0.0341 0.20671 0.0687 0.17208 l -0.0341,0.34365 v 0.24081 0.20671 0.61908 0.17156 l -0.0346,0.27544 -0.0341,1.65106 v 0.51574 l -0.0346,1.61696 v 0.48162 l -0.0687,1.65107 v 0.17208 0.30954 0.34416 0.41238 l -0.0346,0.30954 v 0.13798 0.447 0.10335 0.34365 l -0.0341,0.24082 v 0.37878 0.27492 0.0687 0.34417 l -0.0346,0.34416 v 0.10283 0.27544 0.10334 l -0.0341,1.0661 v 0.58498 l -0.0346,0.4811 v 0.61959 l -0.0341,0.44701 v 0.17209 0.41237 l -0.0346,0.27544 v 0.17208 0.0341 0.0687 l -0.0341,0.34417 v 0.75705 l -0.0346,0.13746 v 0.0341 0.17208 0.13747 0.37878 0.72193 l -0.0341,1.03198 v 0.17208 l -0.0346,0.85989 -0.0687,1.06661 v 0.30953 0.0341 0.17209 0.0346 0.0687 l -0.0346,0.13746 v 0.0346 0.27491 l -0.0687,1.23816 v 0.0346 l -0.0341,0.48163 v 0.34416 l -0.0346,1.06609 -0.0341,0.37827 v 0.34417 l -0.0346,0.34365 v 0.24081 l -0.0346,0.51625 v 0.0341 l -0.0341,1.10071 v 0.13798 0.13745 0.34365 l -0.0346,0.24081 v 0.0346 0.44701 l -0.0341,0.48162 v 0.0346 0.0341 0.17208 0.20619 0.10336 l -0.0346,0.0346 v 0.0341 0.0687 0.24081 0.0687 0.27543 l -0.0341,0.34417 v 0.0341 0.99735 l -0.0346,0.4129 -0.0238,0.79633 h 21.66999 v -1.24437 -0.0165 -1.58698 -0.0305 -1.60352 h 1.74821 v -1.5782 h 1.74718 v -1.58698 h 4.95061 v 1.58698 h 2.55229 v 1.5782 h 2.782779 v 1.60352 h 1.847432 v 1.61747 h 5.09375 v -1.61747 h 1.84795 v -1.60352 h 2.78277 v -1.5782 h 2.5523 v -1.58698 h 4.9506 v 1.58698 h 1.74718 v 1.5782 h 1.7477 v 1.60352 0.0305 1.58698 0.0165 1.24437 h 16.7938 l 0.004,-0.007 0.0341,-0.13746 v -0.0687 l -0.0341,-0.13797 -0.0346,-0.0341 -0.0687,-0.0687 -0.17157,-0.34417 -0.0693,-0.0346 -0.0687,-0.0341 -0.0341,-0.0346 -0.20619,-0.24081 v -0.0687 l -0.0346,-0.0341 v -0.0346 l -0.0346,-0.10335 v -0.0341 -0.0341 -0.0346 -0.0341 l 0.0693,-0.0692 0.0341,-0.10284 0.30954,-0.2067 0.20619,-0.17157 0.17208,-0.2067 0.0341,-0.0687 v -0.0341 l 0.0346,-0.10336 v -0.10335 -0.30954 l -0.0346,-0.0687 -0.0341,-0.20619 -0.0346,-0.13798 v -0.0687 l 0.0346,-0.0687 0.0687,-0.0687 0.10336,-0.0687 0.0687,-0.0346 0.24081,-0.13746 0.10284,-0.10335 0.0346,-0.10335 0.0341,-0.10284 -0.0341,-0.0687 v -0.0346 -0.0346 l -0.0346,-0.10284 -0.0341,-0.0346 v -0.0341 l -0.0346,-0.0346 -0.10284,-0.13746 -0.0693,-0.13745 -0.0687,-0.10336 v -0.0341 -0.0687 -0.10335 -0.0692 l 0.0346,-0.0341 v -0.0341 -0.0346 h 0.0341 l 0.0346,-0.0341 h 0.0341 v -0.0346 h 0.10335 l 0.17209,0.0346 0.0687,0.0341 0.20619,0.13797 0.0341,0.0341 h 0.0346 0.0346 0.0687 v 0.0341 h 0.0341 v -0.0341 h 0.0346 v -0.0341 l 0.0341,-0.0692 0.0346,-0.0341 v -0.0346 -0.0341 h -0.0346 v -0.0346 -0.0341 -0.0346 l -0.0687,-0.17208 -0.0346,-0.13746 -0.0341,-0.27492 v -0.0346 -0.0687 -0.0687 l 0.0687,-0.10335 0.0346,-0.0346 0.0341,-0.0341 v -0.0346 h 0.0341 l 0.0346,-0.0341 0.10335,-0.0687 0.0687,-0.0687 0.0687,-0.0346 v -0.10335 -0.0341 -0.0346 -0.0687 -0.13746 -0.0687 -0.0341 l -0.0341,-0.0346 v -0.0687 -0.0687 l -0.0346,-0.0693 v -0.0341 -0.0687 -0.0346 -0.0341 -0.0346 l 0.0346,-0.17157 0.0341,-0.10335 v -0.0346 -0.0341 -0.13746 l 0.0346,-0.0346 0.0341,-0.10283 0.0346,-0.10336 v -0.0346 -0.17156 -0.0346 -0.0341 -0.0346 -0.0687 -0.0346 l -0.0346,-0.0341 v -0.0346 -0.0341 h -0.0341 v -0.0346 l -0.0346,-0.10335 -0.0341,-0.17157 v -0.10336 l 0.0341,-0.10335 0.0687,-0.10284 0.0346,-0.0346 0.0341,-0.0346 0.0346,-0.0341 0.17208,-0.13798 0.0687,-0.0687 0.0687,-0.0687 0.0341,-0.0341 v -0.10335 l 0.0346,-0.13746 -0.0346,-0.0687 v -0.0346 -0.0346 l -0.0341,-0.0341 -0.0346,-0.17208 v -0.10335 -0.17157 -0.0346 h 0.0346 v -0.13746 l 0.0341,-0.0346 v -0.0341 -0.0346 -0.10283 h 0.0346 v -0.0346 -0.0341 l 0.0341,-0.0346 v -0.0341 l 0.0687,-0.10336 0.0346,-0.10335 0.0341,-0.0341 0.0693,-0.17208 0.0687,-0.13746 0.0341,-0.0346 0.0341,-0.0687 0.0346,-0.0346 0.0346,-0.0346 0.13746,-0.13746 0.0687,-0.17157 0.0341,-0.17208 0.0346,-0.13746 v -0.10341 -0.0687 l 0.0341,-0.24081 0.0346,-0.0687 0.13746,-0.27544 V 275.96 l 0.10336,-0.13798 0.0341,-0.0341 0.13797,-0.10335 v 0.0341 l 0.27492,-0.20619 0.0687,-0.0687 v -0.0346 l 0.0341,-0.13746 v -0.17209 -0.13745 -0.0687 l 0.0346,-0.10336 0.0687,-0.13746 0.0687,-0.13746 0.0687,-0.10335 0.0341,-0.0687 v -0.0346 -0.10283 -0.0346 -0.10336 l -0.0341,-0.17208 h -0.0341 v -0.0687 l -0.0346,-0.0341 -0.0341,-0.0692 -0.0687,-0.13746 -0.0346,-0.13746 v -0.20619 l 0.0346,-0.0692 0.0341,-0.10284 0.0341,-0.17208 -0.0687,-0.13746 -0.0687,-0.0687 -0.10283,-0.0692 -0.13798,-0.0687 h -0.0687 v -0.0341 h -0.0341 l -0.0341,-0.10335 0.0341,-0.10335 0.0687,-0.0341 0.10336,-0.0687 0.13745,-0.0346 0.0687,-0.0687 v -0.0346 l -0.0346,-0.10284 v -0.27543 -0.0687 -0.10335 -0.0341 -0.0346 -0.13746 l 0.0346,-0.0687 0.10284,-0.20671 v -0.0341 -0.0687 l 0.0346,-0.0346 0.0687,-0.17208 0.0346,-0.10284 0.0341,-0.17208 v -0.0346 l -0.0341,-0.10284 -0.0346,-0.10335 -0.0341,-0.0687 -0.0346,-0.0346 h -0.0341 l -0.10334,-0.13746 -0.10285,-0.17208 -0.0687,-0.10284 -0.0693,-0.27543 v -0.10335 l -0.0346,-0.0687 v -0.10336 l -0.0682,-0.17156 -0.0346,-0.10336 -0.0341,-0.0687 h -0.0693 l -0.10283,-0.13746 v -0.0346 l -0.0346,-0.0687 h -0.0341 l -0.20619,-0.34416 -0.0346,-0.0687 -0.13746,-0.10284 -0.10335,-0.10335 v -0.10336 -0.10335 l 0.0346,-0.13746 0.0341,-0.0687 0.10335,-0.10335 0.0346,-0.0341 h 0.0341 l 0.0341,-0.0346 0.13798,-0.13746 0.10283,-0.17208 v -0.0341 l 0.0346,-0.0346 0.0341,-0.0687 h 0.0346 v -0.0346 h 0.0341 l 0.0693,-0.0687 h 0.0341 l 0.13746,-0.0341 h 0.0346 l 0.10284,-0.0346 0.13746,-0.0687 h 0.0687 l 0.10336,0.0341 0.0341,0.0346 0.0346,0.0687 h 0.0346 l 0.0341,0.0341 0.0346,0.0692 h 0.0341 0.0346 v 0.0341 h 0.0341 0.0346 l 0.0341,-0.0341 h 0.0687 v -0.0346 h 0.0346 0.0341 v -0.0346 l 0.0687,-0.0687 0.0687,-0.0687 0.0346,-0.0341 0.13746,-0.10335 h 0.0687 l 0.0346,-0.0341 0.10283,-0.0346 0.0346,-0.0346 0.0341,-0.0341 0.0687,-0.0346 h 0.0346 0.0687 0.0346 l 0.0341,-0.0341 h 0.0346 l 0.0341,-0.0346 v -0.10284 -0.17208 -0.10335 -0.37827 -0.10336 l -0.0341,-0.37827 v -0.68781 -0.20671 -0.27492 l -0.0346,-0.79116 v -0.10335 -0.17209 -0.20619 -0.0687 l -0.0341,-0.2067 v -0.27492 -0.55035 -0.34417 -0.0341 -0.0346 l -0.0346,-0.61908 -0.0341,-0.55036 v -0.0346 -0.13746 -0.13746 l 0.0341,-0.2067 -0.0341,-0.24081 v -0.27492 -0.0341 -0.17209 -0.0346 -0.0341 -0.10335 -0.20619 -0.48162 l -0.0346,-0.0346 v -0.13746 -0.0346 -0.51574 -0.20671 -0.13746 l -0.0341,-0.51573 v -0.24081 -0.0346 -0.20619 -0.0346 -0.0687 -0.17208 -0.20619 -0.24081 l -0.0346,-0.10335 v -0.27492 -0.20671 -0.20619 -0.30954 -0.37827 l -0.0341,-0.24081 v -0.37879 -0.13746 -0.20619 -0.0346 -0.17157 -0.2067 -0.0341 -0.0346 -0.17208 -0.10284 -0.24081 l -0.0346,-0.17208 v -0.37886 -0.0687 -0.13746 l -0.0341,-0.79117 v -0.17208 -0.51573 -0.0346 -0.0341 -0.0346 -0.0346 -0.0341 l -0.0346,-0.24081 v -0.20619 -0.0346 -0.27492 -0.17208 -0.17208 -0.72244 l -0.0341,-0.17208 v -0.13746 -0.17208 -0.10336 -0.54983 l -0.0346,-0.61961 v -0.0341 -0.24081 -0.72243 -0.0687 l -0.0341,-0.17209 v -0.30954 -0.447 -0.20671 l -0.0346,-0.68781 v -0.89452 l -0.0341,-0.41289 v -0.20619 -0.0346 -0.75655 -0.30954 l -0.0346,-0.58446 v -0.34416 -0.10336 -0.20618 l -0.0341,-0.61909 -0.0346,-1.41077 v -0.30954 -0.0341 -0.0687 -0.41289 -0.20619 -0.37879 l -0.0341,-0.55035 v -0.17208 -0.17157 -0.17208 l -0.0346,-0.61909 z m -79.504691,58.23831 v 0.0667 0.0341 0.10336 0.0346 0.0341 0.0346 l -0.0346,0.37827 v 0.65371 0.24081 0.0341 l -0.0341,0.41289 v 0.34365 0.0346 l -0.0346,1.10071 -0.0687,0.99736 -0.0341,1.03198 -0.0346,0.96324 v 0.10336 l -0.0346,0.68471 v 0.13746 0.0341 0.0346 0.0341 0.10335 0.0346 l -0.0341,0.10336 v 0.0341 0.10334 0.0687 0.0341 0.0687 0.34417 0.0341 0.0346 0.0687 0.10336 0.0341 l -0.0346,0.55087 v 0.85938 0.0692 l -0.0341,0.20619 v 0.10283 0.31006 0.10336 0.20619 0.20618 l -0.0346,0.13746 h 0.13798 l 0.0341,-0.0341 0.0346,-0.0341 0.30903,-0.10335 0.10335,-0.0346 0.10335,-0.0687 0.30954,-0.48162 0.17157,-0.13746 0.0692,-0.0687 h 0.0687 0.13745 l 0.24082,0.0687 0.10283,0.0687 0.0346,0.0346 0.10283,0.0687 0.0692,0.10336 0.0341,0.0687 0.20619,0.27491 0.0687,0.17209 0.0692,0.10335 0.0687,0.0687 v 0.0341 h 0.0341 l 0.0687,0.10335 0.13746,0.0346 0.20671,0.0341 0.17157,0.0687 0.13797,0.0687 0.27492,0.30954 0.0341,0.0687 0.17208,0.0692 h 0.0346 l 0.0341,0.0341 h 0.0346 0.13746 0.0687 0.0346 0.0341 l 0.0346,-0.0341 h 0.0341 l 0.0346,-0.0346 0.10284,-0.0341 0.41289,-0.10335 0.0346,-0.0341 0.0687,-0.0693 h 0.0341 l 0.13746,-0.20619 0.0687,-0.0687 0.0687,-0.0346 h 0.13798 0.0341 l 0.0346,0.0346 0.0341,0.0346 0.24081,0.13746 h 0.0346 0.0687 0.0341 l 0.13746,-0.0346 0.0693,-0.0341 0.10284,-0.0346 0.0346,-0.0687 h 0.0341 l 0.0346,-0.0346 0.0341,-0.0341 0.0346,-0.0346 0.10335,-0.17157 0.0341,-0.0687 0.0687,-0.0692 0.10335,-0.0687 0.10284,-0.0341 h 0.17208 l 0.13746,0.0341 0.10335,0.0687 0.0687,0.0692 0.10336,0.10284 0.0687,0.20619 0.0687,0.17208 -0.0341,0.0687 v 0.13798 0.0687 0.13746 0.10335 0.13746 l 0.0687,0.24081 v 0.0346 l 0.0341,0.0341 0.0346,0.0346 v 0.0341 h 0.0341 l 0.0346,0.0346 0.0687,0.0341 0.20618,0.10335 h 0.10336 0.10283 0.0346 l 0.13746,0.0341 0.34417,0.0687 h 0.13746 l 0.0341,0.0346 0.27543,0.10335 0.17157,0.10336 0.17208,0.13746 0.13746,0.13746 0.10335,0.10335 0.17208,0.27492 0.0341,0.10335 0.0687,0.13746 0.0346,0.13797 v 0.0341 0.10336 0.0341 0.0341 0.0346 l 0.0341,0.20671 v 0.0341 0.0687 l 0.0346,0.10336 0.0341,0.10335 0.0346,0.10335 0.0346,0.0341 0.0341,0.0687 0.0341,0.0687 0.0693,0.10335 0.0687,0.0687 0.13746,0.17208 0.10284,0.13746 v 0.0346 l 0.0346,0.0341 0.0687,0.0687 0.10335,0.20671 0.10284,0.20618 0.0693,0.10336 0.0341,0.0341 0.10335,0.20619 0.0341,0.20671 v 0.10335 0.13746 0.0346 0.0341 0.0341 0.10335 l -0.0341,0.20619 v 0.0346 0.0687 0.10335 0.0687 0.10335 l 0.0341,0.10283 v 0.13746 0.0346 0.0687 l 0.0346,0.0346 0.0687,0.20619 0.0687,0.10335 0.0346,0.0341 v 0.0346 h 0.0341 l 0.10335,0.13746 0.0341,0.0341 0.10336,0.0346 0.13746,0.0346 0.17208,0.0687 h 0.0687 l 0.48162,0.10284 h 0.0687 l 0.0687,0.0346 h 0.0341 l 0.13746,0.0687 h 0.0346 l 0.13746,0.0346 0.0346,0.0341 0.30903,0.13746 0.0693,0.0687 0.0687,0.0346 0.13746,0.0341 0.13746,0.0692 0.447,0.10284 h 0.13746 0.2067 0.0341 l 0.13746,0.0346 0.10335,-0.0346 0.20619,-0.0687 h 0.10387 v -0.0341 h 0.0341 l 0.10336,-0.0346 0.13745,-0.0687 h 0.0346 l 0.20619,-0.0341 0.30955,-0.13798 h 0.20618 0.10336 l 0.0341,0.0346 h 0.13797 l 0.17157,0.0687 0.30954,0.24082 v 0.0341 l 0.0346,0.0346 0.10284,0.0341 h 0.0687 0.0346 0.0346 l 0.17156,0.0693 0.34417,0.0687 0.24081,0.0687 h 0.0341 l 0.0687,0.0341 0.0346,0.0346 0.13746,0.0687 0.13746,0.10335 v 0.0341 0.0346 h 0.0346 l 0.0341,0.0687 v 0.0687 l 0.0346,0.0346 v 0.0341 l 0.0341,0.10334 0.0346,0.17208 v 0.0682 0.0346 0.0346 l 0.0341,0.0341 v 0.0346 l 0.0346,0.0341 0.0341,0.0341 v 0.0346 l 0.0687,0.0346 0.20671,0.17157 0.17156,0.0346 0.13798,0.0341 0.13746,0.0346 0.13746,0.10335 0.0687,0.0341 h 0.0341 l 0.0346,0.10284 0.0687,0.2067 v 0.0687 l 0.0687,0.30954 v 0.10336 l 0.0346,0.10335 0.0341,0.0687 v 0.0687 h 0.0346 l 0.0346,0.0687 0.0687,0.0346 0.0687,0.0341 h 0.0687 l 0.17208,0.0687 h 0.0341 l 0.17208,0.0346 0.30954,0.0341 h 0.0341 v 0.0346 h 0.0346 l 0.0341,0.0346 0.0687,0.0682 0.10336,0.0346 h 0.0346 0.0341 l 0.34416,0.20619 0.10284,0.0346 h 0.0346 l 0.20619,0.0687 h 0.0687 l 0.10335,-0.0346 h 0.0687 l 0.0341,-0.0341 0.0687,-0.0687 0.0693,-0.0687 v -0.0346 l 0.0687,-0.13746 0.0341,-0.20619 h 0.0346 v -0.17208 l 0.0341,-0.20671 0.0346,-0.0687 0.0341,-0.0687 0.13798,-0.13746 v -0.0346 h 0.0341 l 0.0687,-0.0341 0.0346,-0.0346 0.0687,-0.0341 h 0.0341 0.0346 l 0.30954,-0.0692 0.0341,-0.0341 0.37827,-0.0687 0.10335,-0.0346 0.13746,-0.0341 0.24081,-0.10335 0.30955,-0.0687 h 0.24081 l 0.17208,0.0341 0.13746,0.0346 0.20619,0.13746 0.13746,0.10335 0.20619,0.20619 0.0687,0.10335 0.0687,0.0341 0.17208,0.0692 h 0.0346 l 0.20619,0.0687 0.10335,0.0341 h 0.0687 l 0.34365,0.0346 0.137461,0.0341 0.516249,0.10336 0.171561,0.0341 h 0.0346 l 0.103359,0.0693 h 0.0341 0.0346 l 0.171561,0.10283 0.309549,0.20619 0.24081,0.20671 0.103349,0.17208 0.0341,0.20619 v 0.13746 0.10335 l 0.0346,0.0346 v 0.0341 l 0.102838,0.13746 0.0346,0.0346 h 0.0346 v 0.0341 l 0.0341,0.0346 h 0.0346 0.0341 v 0.0341 h 0.0346 l 0.137451,0.0346 h 0.0687 l 0.0346,-0.0346 h 0.0341 v -0.0341 l 0.0687,-0.0687 0.274921,-0.30954 0.0346,-0.0692 0.0687,-0.0687 0.0687,-0.0341 0.103359,-0.0346 0.0687,-0.0687 0.103351,-0.0346 h 0.137459 l 0.102841,0.0346 h 0.0346 l 0.0687,0.0346 0.0687,0.0341 h 0.0346 l 0.20619,0.13746 0.137459,0.0346 h 0.0346 0.0341 0.0346 0.10283 0.0346 0.0341 l 0.13798,-0.0346 0.20619,-0.0341 h 0.137451 0.137459 0.0346 l 0.2403,-0.10335 0.103351,-0.10336 0.0687,-0.0687 v -0.0341 l 0.103349,-0.17209 v -0.0341 l 0.0346,-0.0346 v -0.0346 l 0.0341,-0.0687 0.0346,-0.24081 0.0341,-0.0346 0.0687,-0.17209 0.103362,-0.13746 0.103349,-0.10283 0.10283,-0.0346 0.34417,-0.10284 0.0687,-0.0346 h 0.0687 l 0.2403,-0.13745 0.2067,-0.1721 0.20619,-0.30953 0.103349,-0.17208 0.0341,-0.10335 0.0687,-0.10285 0.0346,-0.0346 0.0346,-0.0346 0.137459,-0.0341 0.137462,-0.0341 h 0.0341 0.0346 0.17208 0.0341 l 0.0687,0.0341 h 0.0346 l 0.137459,0.0687 h 0.0346 0.0341 0.0687 l 0.137459,-0.0341 0.0687,-0.0346 0.103349,-0.0687 0.103359,-0.0687 v -0.0341 l 0.20619,-0.10334 0.0346,-0.0346 0.0341,-0.0341 0.0687,-0.0346 0.0687,-0.0341 0.172082,-0.0687 0.0687,-0.0346 0.103349,-0.0341 h 0.0341 l 0.412898,-0.10335 h 0.0341 0.0687 l 0.103349,0.0346 0.103351,0.0687 0.0687,0.10336 0.0341,0.0341 0.0346,0.0687 v 0.10335 0.0341 l 0.0341,0.2067 v 0.0341 0.13798 l -0.0341,0.10283 v 0.0687 l -0.0687,0.24082 -0.0346,0.17208 v 0.20619 l 0.0346,0.10335 v 0.0687 l 0.102841,0.10335 0.103349,0.20619 0.0346,0.0346 0.0687,0.20619 0.0341,0.30955 v 0.0346 0.0687 0.24081 l 0.0346,0.30954 v 0.0687 0.0341 0.0692 l 0.0687,0.20619 0.0687,0.24082 0.0687,0.10335 0.0346,0.0341 0.0341,0.0687 0.0346,0.0346 0.0341,0.0341 0.0687,0.0346 0.10336,0.10335 0.137461,0.10284 v 0.0346 l 0.0687,0.0346 h 0.0346 l 0.0687,0.0682 0.102827,0.0346 0.103362,0.10335 h 0.0687 l 0.103349,0.0341 v 0.0346 h 0.0346 0.137459 l 0.0687,0.0341 0.0341,-0.0341 h 0.275442 0.240289 0.103349 0.0346 l 0.0687,0.0341 0.171569,-0.0341 0.103352,0.0687 h 0.0346 l 0.0687,0.0687 0.0687,0.0687 0.0341,0.0346 0.0687,0.0341 h 0.0346 l 0.0687,0.0346 0.102838,0.0687 0.0693,0.0687 0.10283,0.13746 0.0346,0.0346 0.0341,0.0341 v 0.0346 0.0341 l 0.0346,0.0346 0.0687,0.10336 0.103359,0.20619 0.0341,0.0687 0.17208,0.17208 0.103349,0.13746 v 0.0346 l 0.0687,0.0687 0.0341,0.0341 0.0687,0.0692 0.0346,0.0341 0.0341,0.0341 0.172091,0.10335 v 0.0341 l 0.137461,0.0346 0.0346,0.0346 0.103349,0.0341 0.102841,0.0687 0.0346,0.0346 h 0.0341 l 0.0346,0.0341 0.0341,0.0341 v 0.0346 h 0.0346 v 0.0346 l 0.0341,0.0341 0.0346,0.0687 0.0341,0.13746 v 0.0346 l 0.0346,0.37827 0.0346,0.13746 0.0687,0.20671 v 0.0341 0.0346 l 0.0687,0.10284 0.0687,0.10335 0.0341,0.0346 v 0.0341 l 0.0692,0.0346 0.0687,0.0687 h 0.0341 l 0.0346,0.0341 0.10283,0.0346 0.0346,0.0346 0.171569,0.0341 0.0692,0.0341 h 0.137459 0.20619 l 0.0687,-0.0341 h 0.0687 0.0687 l 0.41289,-0.13746 0.240811,-0.10335 0.137459,-0.0687 0.309542,-0.10335 0.0687,-0.0346 h 0.0346 0.0341 l 0.0346,-0.0341 h 0.0341 l 0.17209,-0.0341 0.0687,-0.0346 0.20619,-0.0341 0.0346,-0.0346 h 0.0341 l 0.0346,-0.0341 h 0.0341 l 0.10335,-0.0346 0.27491,-0.10335 0.0346,-0.0341 0.0687,-0.0341 0.24082,0.10283 0.0341,0.0346 h 0.0346 0.13745 l 0.10336,-0.0346 h 0.0341 l 0.0346,-0.0341 0.24081,-0.0346 0.37776,-0.0687 0.17208,-0.0687 0.13798,-0.13745 0.10283,-0.20671 0.0346,-0.10284 0.0341,-0.0346 v -0.0687 l 0.0346,-0.0346 v -0.0341 -0.0346 -0.13746 -0.0341 l 0.0341,-0.0346 v -0.10334 l 0.10335,-0.17209 0.0346,-0.10283 v -0.0346 -0.0341 -0.17208 -0.30955 -0.0687 -0.0341 l 0.0341,-0.0346 v -0.0687 l 0.0341,-0.0346 v -0.0341 l 0.0346,-0.10335 0.0687,-0.13746 v -0.0346 l 0.0346,-0.447 v -0.0341 -0.24133 l -0.0346,-0.0682 0.0346,-0.0687 0.0341,-0.0692 0.0687,-0.10283 0.0346,-0.0346 0.20619,-0.20619 v -0.0346 h 0.0346 v -0.0346 h 0.0341 l 0.10336,-0.0341 0.0687,-0.0341 h 0.17208 v -0.0346 l 0.0687,0.0346 h 0.0687 l 0.13745,0.0341 0.30955,0.13746 0.0687,-0.0341 h 0.24081 0.0341 0.0346 l 0.17208,-0.0346 0.0687,-0.0341 h 0.0346 l 0.13746,-0.10336 0.0341,-0.0687 0.0346,-0.0341 v -0.0346 l 0.0341,-0.10335 h 0.0346 v -0.0341 l 0.0341,-0.2067 v -0.17157 -0.0687 -0.0346 l -0.0341,-0.0687 -0.0687,-0.24081 -0.0346,-0.13746 -0.13746,-0.27544 v -0.13745 -0.0346 -0.0341 l -0.0341,-0.10335 -0.0693,-0.17207 0.0346,-0.10285 v -0.0687 -0.0346 l 0.0346,-0.13746 0.0341,-0.0687 0.0341,-0.0687 v -0.0346 l 0.0346,-0.10335 v -0.0341 -0.0341 -0.0346 l -0.0346,-0.17208 -0.0341,-0.13745 -0.0341,-0.10336 v -0.17209 l -0.0346,-0.10283 -0.0687,-0.0687 -0.0346,-0.27544 -0.0687,-0.13746 -0.0687,-0.0687 -0.10336,-0.0692 -0.10283,-0.0687 -0.0693,-0.0687 -0.0682,-0.10336 v -0.0341 l -0.0346,-0.0687 v -0.0346 -0.0341 -0.0687 -0.10335 l 0.10284,-0.20619 0.0346,-0.0693 0.0346,-0.0341 0.0341,-0.0346 0.0346,-0.0341 0.17157,-0.13746 0.17208,-0.13745 v -0.0346 h 0.0693 l 0.0682,-0.0346 h 0.0693 l 0.27492,-0.13746 0.0687,-0.0341 0.0346,-0.0346 0.17155,-0.17208 v -0.0341 l 0.0346,-0.0346 0.0346,-0.0341 v -0.0346 l 0.0341,-0.0687 h 0.0341 v -0.0687 -0.0346 -0.0341 l 0.0346,-0.0687 v -0.0346 l 0.0346,-0.10284 v -0.0346 -0.0687 -0.0346 -0.0341 l 0.0341,-0.0687 -0.0341,-0.0346 v -0.0341 -0.0687 -0.0687 h -0.0346 v -0.10335 l -0.0687,-0.10336 v -0.0341 -0.0346 l 0.0341,-0.17208 v -0.13746 -0.0341 l 0.17208,-0.17208 0.10336,-0.10336 0.0687,-0.13746 0.0341,-0.0346 0.0346,-0.10284 0.0687,-0.10335 0.0687,-0.10336 h 0.0346 l 0.0341,-0.0687 v -0.0341 -0.0346 -0.10336 l 0.0346,-0.13745 v -0.0341 l 0.10283,-0.10336 0.0346,-0.10335 h 0.0341 l 0.0346,-0.0687 0.0687,-0.17208 0.0346,-0.13746 v -0.0341 l 0.0341,-0.0346 v -0.0341 h 0.0346 v -0.0346 l 0.0687,-0.0346 0.10284,-0.0682 0.2067,-0.10336 0.0341,-0.0346 0.17209,-0.10284 0.0346,-0.0346 0.0341,-0.0346 0.0341,-0.0341 h 0.0351 l 0.0341,-0.0687 0.0687,-0.17208 v -0.10284 h 0.0341 v -0.13797 l 0.0346,-0.0341 v -0.0346 -0.0341 l 0.0687,-0.10335 0.0346,-0.0687 0.13746,-0.0346 0.0341,-0.0341 h 0.0346 l 0.13746,-0.0346 h 0.20619 l 0.0346,0.0346 h 0.0346 0.0341 v 0.0341 h 0.0341 l 0.0346,0.0346 0.0687,0.0687 v 0.0341 l 0.0687,0.0692 0.0687,0.13746 v 0.0341 0.0346 h 0.0346 l 0.0341,0.10335 v 0.0682 l 0.0346,0.0346 v 0.0346 0.10283 0.0346 l 0.0341,0.0341 h 0.0346 0.0687 0.13746 l 0.0687,-0.0341 h 0.0687 l 0.0346,-0.0346 h 0.13745 0.0346 l 0.13746,0.0687 0.10336,0.0692 h 0.0341 l 0.0346,0.0687 0.0687,0.13747 0.0687,0.10336 0.13745,0.24081 0.0687,0.20619 0.0687,0.10335 v 0.0341 l 0.0346,0.0687 0.0341,0.0692 0.0346,0.0341 0.10284,0.20619 0.0346,0.10335 v 0.0687 0.10335 l -0.0346,0.0346 -0.13746,0.17157 -0.0687,0.0346 -0.0346,0.0341 -0.0687,0.10335 -0.0341,0.0341 -0.10335,0.13798 -0.0341,0.0687 -0.0346,0.13746 v 0.0346 l 0.0346,0.0341 0.20619,0.20619 0.10335,0.10336 0.0341,0.0346 0.20618,0.0687 0.0687,0.0341 h 0.0346 0.0346 0.0341 v -0.0341 l 0.27493,-0.13746 0.17208,-0.13798 0.10335,-0.10335 0.0687,-0.0687 0.13746,-0.20619 0.0687,-0.20619 -0.0341,-0.0687 0.0341,-0.37879 0.13747,-0.20618 0.10334,-0.17208 0.10335,-0.0341 0.0341,-0.0346 h 0.0687 0.0346 0.10284 l 0.13797,0.10336 0.20619,0.24081 0.0346,0.0687 0.17158,0.0687 0.0687,0.0346 0.0692,0.0341 0.0687,0.0341 h 0.10283 0.0346 l 0.0687,-0.0341 0.0687,-0.0341 0.0341,-0.0692 v -0.0341 l 0.0346,-0.10335 v -0.0687 l -0.10336,-0.10336 -0.0687,-0.0687 -0.10283,-0.13747 -0.0687,-0.0687 -0.10336,-0.10336 v -0.0341 l -0.0346,-0.0346 v -0.0687 -0.0341 -0.0346 -0.0687 l 0.0346,-0.10335 v -0.0341 l 0.0687,-0.17208 -0.0341,-0.0341 v -0.0692 l 0.0341,-0.13746 v -0.0341 l 0.0346,-0.0346 0.0341,-0.10335 0.10336,-0.0687 0.0341,-0.0687 v -0.10284 -0.0346 -0.13746 -0.0346 l -0.0341,-0.0687 -0.0346,-0.0346 -0.0687,-0.13747 h -0.0341 l -0.0687,-0.10335 -0.0346,-0.0341 -0.13746,-0.13745 -0.13746,-0.0687 -0.0692,-0.0692 -0.0687,-0.0687 h -0.0341 v -0.0341 h -0.0346 l -0.0341,-0.10335 -0.0346,-0.0687 -0.0341,-0.0346 -0.0346,-0.0687 v -0.0341 l -0.0346,-0.0692 v -0.0687 -0.0687 l -0.0341,-0.13745 v -0.13745 l 0.0341,-0.0687 0.0346,-0.0346 h 0.0687 0.0687 l 0.10335,0.0346 0.13746,0.0687 h 0.0687 l 0.0346,0.0341 h 0.0687 0.10335 l 0.0341,-0.0341 0.17209,-0.0687 h 0.0346 l 0.0682,-0.0346 0.0346,-0.0346 v -0.0341 l 0.10283,-0.10335 0.10336,-0.10284 0.0346,-0.0692 0.0341,-0.10284 v -0.10335 l 0.0346,-0.27492 -0.0687,-0.24133 v -0.10283 -0.17209 l 0.0341,-0.0687 -0.0341,-0.17209 -0.17209,-0.55035 -0.0346,-0.10336 v -0.0341 h -0.0341 l 0.0341,-0.0687 v -0.0346 -0.0341 l 0.0346,-0.0346 v -0.0341 l 0.0687,-0.0346 0.17208,-0.0687 0.0687,-0.10336 0.0346,-0.0687 0.0341,-0.20618 v -0.0346 l 0.0687,-0.13746 0.0346,-0.0687 0.0341,-0.0346 h 0.0346 l 0.10284,-0.0341 0.13798,-0.0346 0.10283,-0.0341 h 0.0687 0.0346 v -0.0346 h 0.0346 l 0.0682,-0.0687 0.0346,-0.0341 v -0.0346 h 0.0341 v -0.0687 -0.0687 -0.0346 l -0.0341,-0.0341 v -0.0346 l -0.0346,-0.0687 -0.0341,-0.0687 v -0.0687 -0.0346 -0.0341 -0.10335 -0.10284 l 0.0341,-0.10335 0.0346,-0.0346 0.0341,-0.0341 v -0.0346 h 0.0346 l 0.10336,-0.13745 0.10283,-0.0687 0.10336,-0.0346 0.0346,-0.0341 h 0.13746 l 0.13746,-0.0346 h 0.20619 0.0346 l 0.41238,0.10336 0.0687,-0.0346 h 0.0687 l 0.0346,-0.0341 h 0.0346 0.0341 0.0346 0.0341 0.0346 l 0.0687,0.0341 h 0.0341 l 0.0346,0.0346 h 0.0341 l 0.0687,0.0687 h 0.0346 l 0.0346,0.0341 h 0.0341 0.0693 l 0.20618,0.0346 0.0687,-0.0687 v -0.0346 l 0.0346,-0.10283 v -0.17209 -0.13745 -0.0346 -0.10335 l 0.0341,-0.34365 0.0346,-0.24081 0.0341,-0.30954 v -0.0692 l 0.0346,-0.13746 0.27492,-0.34365 0.0687,-0.0692 0.0687,-0.0687 0.17208,-0.0687 h 0.0341 l 0.0692,-0.0341 0.10284,-0.0687 0.0346,-0.0346 0.0687,-0.0687 0.10334,-0.0687 0.0341,-0.0346 0.24081,-0.24082 0.10284,-0.13746 0.0346,-0.0687 0.13747,-0.20671 0.10334,-0.0341 v -0.0341 l 0.2403,-0.13797 0.13797,-0.0341 h 0.0341 l 0.20671,0.0341 v 0.0346 l 0.10285,0.0346 h 0.0346 l 0.0341,0.0341 0.10334,0.10284 0.17209,0.13746 0.10336,0.1726 0.0341,0.0687 0.0346,0.17208 0.0341,0.20619 0.10335,0.30955 0.0341,0.10334 0.0687,0.0687 0.0346,0.0341 0.0682,0.10335 h 0.0346 l 0.0687,0.0341 h 0.0687 0.10335 0.0687 l 0.0687,-0.0341 h 0.0346 0.10284 0.0346 l 0.0687,-0.0346 0.0687,-0.0341 h 0.0341 l 0.0346,-0.0341 0.0341,-0.0346 0.10335,-0.10335 0.20619,-0.13746 0.10336,-0.0687 0.27491,-0.24081 0.0346,-0.0341 0.0687,-0.0346 0.0346,-0.0341 0.13746,-0.0346 0.0341,-0.0346 0.10336,-0.0341 h 0.0346 l 0.10283,-0.10335 v -0.0341 l 0.10336,-0.0346 0.20618,-0.0341 h 0.0341 l 0.17209,-0.0687 h 0.10335 l 0.37827,0.10335 h 0.0341 l 0.0687,-0.0692 h 0.0346 l 0.0341,-0.0687 0.0346,-0.0346 v -0.10282 -0.13747 -0.0346 l 0.0687,-0.0687 0.0341,-0.10336 0.10335,-0.10283 v -0.0346 l 0.0687,-0.0687 0.10336,-0.10334 0.10335,-0.17208 0.0682,-0.0687 0.0346,-0.0341 0.17208,-0.10335 0.0687,-0.0346 0.0687,-0.0341 h 0.0687 l 0.0687,-0.0341 h 0.0687 0.0346 l 0.0341,-0.0346 h 0.0346 0.17208 l 0.0687,-0.0346 0.0341,-0.0341 0.0687,-0.0687 0.0692,-0.10335 0.0682,-0.10335 0.10336,-0.20619 h 0.0346 l 0.24029,-0.51625 v -0.0341 l 0.0692,-0.0687 0.10283,-0.13746 v -0.0346 l 0.13747,-0.13746 0.0692,-0.0687 0.0687,-0.0687 0.10283,-0.13746 v -0.0346 l 0.10336,-0.10335 0.10335,-0.0346 v -0.0341 l 0.0687,-0.0687 0.0687,-0.0687 0.0341,-0.0346 v -0.0341 l 0.10335,-0.10335 0.10335,-0.10284 0.10284,-0.0692 0.0346,-0.0341 0.0341,-0.0346 0.0346,-0.0341 0.0341,-0.0341 0.0346,-0.10335 0.0687,-0.0687 0.17208,-0.13798 0.0341,-0.0341 0.0687,-0.0687 h 0.0346 l 0.0341,-0.0346 0.0687,-0.0346 0.0346,-0.0341 0.0341,-0.0341 0.13798,-0.17209 0.17156,-0.13746 v -0.0346 l 0.0687,-0.0687 0.0651,-0.0646 h -14.24838 v 1.24437 0.0517 1.55185 0.0305 1.60352 h -1.7477 v 1.5782 h -1.74718 v 1.58698 h -4.9506 v -1.58698 h -2.5523 v -1.5782 h -2.78277 v -1.60353 h -1.847951 v -1.58233 h -5.09375 v 1.58233 h -1.84743 v 1.60352 H 88.81912 v 1.5782 h -2.55229 v 1.58698 h -4.950611 v -1.58698 h -1.74718 v -1.5782 h -1.74821 v -1.60352 -0.0305 -1.55185 -0.0517 -1.24437 z"
       style="fill:#000000;fill-opacity:1;fill-rule:nonzero;stroke:none;stroke-width:0.102512"
       id="path14-99" />
  </g>
</svg>
